<svg width="2048" height="2048" viewBox="0 0 2048 2048" fill="none" xmlns="http://www.w3.org/2000/svg">
<g clip-path="url(#clip0_499_2)">
<path d="M1664 896C1716.67 896 1766.33 906 1813 926C1859.67 946 1900.33 973.333 1935 1008C1969.67 1042.67 1997.33 1083.67 2018 1131C2038.67 1178.33 2048.67 1228 2048 1280C2048 1333.33 2038 1383 2018 1429C1998 1475 1970.67 1515.67 1936 1551C1901.33 1586.33 1860.33 1614 1813 1634C1765.67 1654 1716 1664 1664 1664C1624 1664 1585 1658 1547 1646C1509 1634 1474 1616.33 1442 1593L1005 2029C992.333 2041.67 977.333 2048 960 2048C942.667 2048 927.667 2041.67 915 2029C902.333 2016.33 896 2001.33 896 1984C896 1966.67 902.333 1951.67 915 1939L1351 1502C1327.67 1470 1310 1435 1298 1397C1286 1359 1280 1320 1280 1280C1280 1227.33 1290 1177.67 1310 1131C1330 1084.33 1357.33 1043.67 1392 1009C1426.67 974.333 1467.33 946.667 1514 926C1560.67 905.333 1610.67 895.333 1664 896ZM1664 1536C1699.33 1536 1732.33 1529.33 1763 1516C1793.67 1502.67 1821 1484.33 1845 1461C1869 1437.67 1887.33 1410.67 1900 1380C1912.67 1349.33 1919.33 1316 1920 1280C1920 1244.67 1913.33 1211.67 1900 1181C1886.67 1150.33 1868.33 1123 1845 1099C1821.67 1075 1794.67 1056.67 1764 1044C1733.33 1031.33 1700 1024.67 1664 1024C1628.67 1024 1595.67 1030.67 1565 1044C1534.33 1057.33 1507 1075.67 1483 1099C1459 1122.33 1440.67 1149.33 1428 1180C1415.33 1210.67 1408.67 1244 1408 1280C1408 1315.33 1414.67 1348.33 1428 1379C1441.33 1409.67 1459.67 1437 1483 1461C1506.33 1485 1533.33 1503.33 1564 1516C1594.67 1528.67 1628 1535.33 1664 1536ZM384 1600C384 1610 386.667 1619 392 1627C397.333 1635 403.667 1642.67 411 1650C430.333 1669.33 454.667 1686.33 484 1701C513.333 1715.67 545 1728 579 1738C613 1748 646.333 1756.67 679 1764C711.667 1771.33 741.333 1776.67 768 1780V1908H760C756 1908 753.333 1907.67 752 1907C726 1903.67 696 1898.67 662 1892C628 1885.33 592.333 1876.33 555 1865C517.667 1853.67 481.667 1840.33 447 1825C412.333 1809.67 380.667 1791 352 1769C323.333 1747 300.667 1722.33 284 1695C267.333 1667.67 258.667 1636 258 1600V448C258 416 265.333 387.333 280 362C294.667 336.667 314 313.333 338 292C362 270.667 389.667 252.667 421 238C452.333 223.333 484.333 209.667 517 197C549.667 184.333 581.333 174.667 612 168C642.667 161.333 670.667 155.333 696 150C740 142.667 784 137.333 828 134C872 130.667 916 128.667 960 128C1004.67 128 1049 129.667 1093 133C1137 136.333 1181 142.333 1225 151C1249 155 1276.67 160.667 1308 168C1339.33 175.333 1371 185 1403 197C1435 209 1467 222.333 1499 237C1531 251.667 1558.67 270 1582 292C1605.33 314 1625 337 1641 361C1657 385 1664.67 414 1664 448V768H1536V637C1497.33 661.667 1454 682.333 1406 699C1358 715.667 1308.67 729 1258 739C1207.33 749 1156.33 756.333 1105 761C1053.67 765.667 1005.33 768 960 768C914.667 768 866.667 766 816 762C765.333 758 714.333 750.667 663 740C611.667 729.333 562 715.667 514 699C466 682.333 422.667 661.667 384 637V1600ZM960 256C922 256 878.667 258 830 262C781.333 266 732 272.667 682 282C632 291.333 584.333 304.667 539 322C493.667 339.333 455.333 360.333 424 385C414.667 392.333 405.667 401.333 397 412C388.333 422.667 384 434.667 384 448C384 460.667 388.333 472.333 397 483C405.667 493.667 414.667 503 424 511C454.667 536.333 492.667 557.333 538 574C583.333 590.667 631 603.667 681 613C731 622.333 780.333 629.333 829 634C877.667 638.667 921.333 640.667 960 640C998 640 1041.33 638 1090 634C1138.67 630 1188 623.333 1238 614C1288 604.667 1335.67 591.333 1381 574C1426.33 556.667 1464.33 535.667 1495 511C1504.33 503.667 1513.33 494.667 1522 484C1530.67 473.333 1535.33 461.333 1536 448C1536 435.333 1531.67 423.667 1523 413C1514.33 402.333 1505 393 1495 385C1464.33 359.667 1426.33 338.667 1381 322C1335.67 305.333 1288.33 292.333 1239 283C1189.67 273.667 1140.33 266.667 1091 262C1041.67 257.333 998 255.333 960 256Z" fill="#0FA958"/>
</g>
<defs>
<clipPath id="clip0_499_2">
<rect width="2048" height="2048" fill="white"/>
</clipPath>
</defs>
</svg>
