<svg width="22" height="22" viewBox="0 0 22 22" fill="none" xmlns="http://www.w3.org/2000/svg">
<g id="fluent:delete-20-regular">
<path id="Vector" d="M9.3502 4.40002H12.6502C12.6502 3.96242 12.4764 3.54273 12.1669 3.2333C11.8575 2.92386 11.4378 2.75002 11.0002 2.75002C10.5626 2.75002 10.1429 2.92386 9.83347 3.2333C9.52403 3.54273 9.3502 3.96242 9.3502 4.40002ZM8.2502 4.40002C8.2502 3.67068 8.53993 2.97121 9.05565 2.45548C9.57138 1.93976 10.2709 1.65002 11.0002 1.65002C11.7295 1.65002 12.429 1.93976 12.9447 2.45548C13.4605 2.97121 13.7502 3.67068 13.7502 4.40002H19.2502C19.3961 4.40002 19.536 4.45797 19.6391 4.56112C19.7423 4.66426 19.8002 4.80416 19.8002 4.95002C19.8002 5.09589 19.7423 5.23579 19.6391 5.33893C19.536 5.44208 19.3961 5.50002 19.2502 5.50002H18.0908L16.7774 16.8784C16.6846 17.6827 16.2993 18.4248 15.6948 18.9636C15.0904 19.5023 14.309 19.8 13.4994 19.8H8.501C7.69135 19.8 6.90997 19.5023 6.30555 18.9636C5.70112 18.4248 5.31584 17.6827 5.223 16.8784L3.9096 5.50002H2.7502C2.60433 5.50002 2.46443 5.44208 2.36129 5.33893C2.25814 5.23579 2.2002 5.09589 2.2002 4.95002C2.2002 4.80416 2.25814 4.66426 2.36129 4.56112C2.46443 4.45797 2.60433 4.40002 2.7502 4.40002H8.2502ZM6.3153 16.753C6.37736 17.2892 6.63435 17.7838 7.03736 18.1428C7.44036 18.5018 7.96128 18.7001 8.501 18.7H13.4994C14.0391 18.7001 14.56 18.5018 14.963 18.1428C15.366 17.7838 15.623 17.2892 15.6851 16.753L16.9831 5.50002H5.0173L6.3153 16.753ZM9.3502 8.25002C9.49606 8.25002 9.63596 8.30797 9.7391 8.41112C9.84225 8.51426 9.9002 8.65416 9.9002 8.80002V15.4C9.9002 15.5459 9.84225 15.6858 9.7391 15.7889C9.63596 15.8921 9.49606 15.95 9.3502 15.95C9.20433 15.95 9.06443 15.8921 8.96129 15.7889C8.85814 15.6858 8.8002 15.5459 8.8002 15.4V8.80002C8.8002 8.65416 8.85814 8.51426 8.96129 8.41112C9.06443 8.30797 9.20433 8.25002 9.3502 8.25002ZM13.2002 8.80002C13.2002 8.65416 13.1423 8.51426 13.0391 8.41112C12.936 8.30797 12.7961 8.25002 12.6502 8.25002C12.5043 8.25002 12.3644 8.30797 12.2613 8.41112C12.1581 8.51426 12.1002 8.65416 12.1002 8.80002V15.4C12.1002 15.5459 12.1581 15.6858 12.2613 15.7889C12.3644 15.8921 12.5043 15.95 12.6502 15.95C12.7961 15.95 12.936 15.8921 13.0391 15.7889C13.1423 15.6858 13.2002 15.5459 13.2002 15.4V8.80002Z" fill="#920000"/>
</g>
</svg>
