<svg width="24" height="24" viewBox="0 0 24 24" fill="none" xmlns="http://www.w3.org/2000/svg">
<g id="material-symbols:live-help-outline">
<path id="Vector" d="M10 21L7 18H3C2.45 18 1.979 17.804 1.587 17.412C1.195 17.02 0.999335 16.5493 1 16V2C1 1.45 1.196 0.979002 1.588 0.587002C1.98 0.195002 2.45067 -0.000664969 3 1.69779e-06H17C17.55 1.69779e-06 18.021 0.196002 18.413 0.588002C18.805 0.980002 19.0007 1.45067 19 2V16C19 16.55 18.804 17.021 18.412 17.413C18.02 17.805 17.5493 18.0007 17 18H13L10 21ZM3 16H7.8L10 18.2L12.2 16H17V2H3V16ZM9.95 14.8C10.3 14.8 10.596 14.679 10.838 14.437C11.08 14.195 11.2007 13.8993 11.2 13.55C11.2 13.2 11.0793 12.904 10.838 12.662C10.5967 12.42 10.3007 12.2993 9.95 12.3C9.6 12.3 9.30433 12.421 9.063 12.663C8.82167 12.905 8.70067 13.2007 8.7 13.55C8.7 13.9 8.821 14.196 9.063 14.438C9.305 14.68 9.60067 14.8007 9.95 14.8ZM10.9 10.95C10.9 10.35 10.9667 9.90834 11.1 9.625C11.2333 9.34167 11.5167 8.98334 11.95 8.55C12.5333 7.96667 12.9457 7.479 13.187 7.087C13.4283 6.695 13.5493 6.24934 13.55 5.75C13.55 4.86667 13.25 4.154 12.65 3.612C12.05 3.07 11.2417 2.79934 10.225 2.8C9.30834 2.8 8.52934 3.025 7.888 3.475C7.24667 3.925 6.80067 4.55 6.55 5.35L8.2 6C8.31667 5.55 8.55 5.18734 8.9 4.912C9.25 4.63667 9.65834 4.49934 10.125 4.5C10.575 4.5 10.95 4.621 11.25 4.863C11.55 5.105 11.7 5.42567 11.7 5.825C11.7 6.10834 11.6083 6.40834 11.425 6.725C11.2417 7.04167 10.9333 7.39167 10.5 7.775C9.95 8.25834 9.57067 8.721 9.362 9.163C9.15334 9.605 9.04934 10.2007 9.05 10.95H10.9Z" fill="#8494A5"/>
</g>
</svg>
