<svg width="14" height="14" viewBox="0 0 14 14" fill="none" xmlns="http://www.w3.org/2000/svg">
<g id="Frame">
<path id="Vector" d="M4.08332 1.53125V3.71875C4.08332 4.08119 3.78952 4.375 3.42707 4.375H0.65625C0.293809 4.375 0 4.08119 0 3.71875V1.53125C0 1.16881 0.293809 0.875 0.65625 0.875H3.42707C3.78952 0.875 4.08332 1.16881 4.08332 1.53125ZM9.04168 8.09375V5.90625C9.04168 5.54381 8.74787 5.25 8.38543 5.25H5.61457C5.25213 5.25 4.95832 5.54381 4.95832 5.90625V8.09375C4.95832 8.45619 5.25213 8.75 5.61457 8.75H8.3854C8.74787 8.75 9.04168 8.45619 9.04168 8.09375ZM9.91668 1.53125V3.71875C9.91668 4.08119 10.2105 4.375 10.5729 4.375H13.3438C13.7062 4.375 14 4.08119 14 3.71875V1.53125C14 1.16881 13.7062 0.875 13.3438 0.875H10.5729C10.2105 0.875 9.91668 1.16881 9.91668 1.53125ZM9.04168 3.71875V1.53125C9.04168 1.16881 8.74787 0.875 8.38543 0.875H5.61457C5.25213 0.875 4.95832 1.16881 4.95832 1.53125V3.71875C4.95832 4.08119 5.25213 4.375 5.61457 4.375H8.3854C8.74787 4.375 9.04168 4.08119 9.04168 3.71875ZM3.42707 5.25H0.65625C0.293809 5.25 0 5.54381 0 5.90625V8.09375C0 8.45619 0.293809 8.75 0.65625 8.75H3.42707C3.78952 8.75 4.08332 8.45619 4.08332 8.09375V5.90625C4.08332 5.54381 3.78952 5.25 3.42707 5.25ZM0 10.2812V12.4688C0 12.8312 0.293809 13.125 0.65625 13.125H3.42707C3.78952 13.125 4.08332 12.8312 4.08332 12.4688V10.2812C4.08332 9.91881 3.78952 9.625 3.42707 9.625H0.65625C0.293809 9.625 0 9.91881 0 10.2812ZM10.5729 8.75H13.3438C13.7062 8.75 14 8.45619 14 8.09375V5.90625C14 5.54381 13.7062 5.25 13.3438 5.25H10.5729C10.2105 5.25 9.91668 5.54381 9.91668 5.90625V8.09375C9.91668 8.45619 10.2105 8.75 10.5729 8.75ZM10.5729 13.125H13.3438C13.7062 13.125 14 12.8312 14 12.4688V10.2812C14 9.91881 13.7062 9.625 13.3438 9.625H10.5729C10.2105 9.625 9.91668 9.91881 9.91668 10.2812V12.4688C9.91668 12.8312 10.2105 13.125 10.5729 13.125ZM4.95832 10.2812V12.4688C4.95832 12.8312 5.25213 13.125 5.61457 13.125H8.3854C8.74784 13.125 9.04165 12.8312 9.04165 12.4688V10.2812C9.04165 9.91881 8.74784 9.625 8.3854 9.625H5.61457C5.25213 9.625 4.95832 9.91881 4.95832 10.2812Z" fill="#8494A5"/>
</g>
</svg>
