<svg width="30" height="30" viewBox="0 0 30 30" fill="none" xmlns="http://www.w3.org/2000/svg">
<g id="iconamoon:search-light">
<path id="Vector" d="M21.25 23.7498L17.0277 19.5274M17.0277 19.5274C17.7499 18.8052 18.3228 17.9478 18.7137 17.0041C19.1046 16.0605 19.3058 15.0491 19.3058 14.0276C19.3058 13.0062 19.1046 11.9948 18.7137 11.0512C18.3228 10.1075 17.7499 9.25009 17.0277 8.52785C16.3054 7.8056 15.448 7.23269 14.5044 6.84181C13.5607 6.45094 12.5493 6.24976 11.5279 6.24976C10.5065 6.24976 9.49508 6.45094 8.55142 6.84181C7.60776 7.23269 6.75033 7.8056 6.02809 8.52785C4.56945 9.98648 3.75 11.9648 3.75 14.0276C3.75 16.0905 4.56945 18.0688 6.02809 19.5274C7.48673 20.9861 9.46506 21.8055 11.5279 21.8055C13.5907 21.8055 15.569 20.9861 17.0277 19.5274Z" stroke="#8494A5" stroke-width="1.5" stroke-linecap="round" stroke-linejoin="round"/>
</g>
</svg>
