<svg width="21" height="21" viewBox="0 0 21 21" fill="none" xmlns="http://www.w3.org/2000/svg">
<g id="bi:database-add" clip-path="url(#clip0_119_674)">
<g id="Group">
<path id="Vector" d="M14.6363 18.7696C15.8418 18.7696 16.998 18.3227 17.8504 17.5271C18.7028 16.7315 19.1817 15.6524 19.1817 14.5272C19.1817 13.4021 18.7028 12.323 17.8504 11.5274C16.998 10.7318 15.8418 10.2848 14.6363 10.2848C13.4307 10.2848 12.2746 10.7318 11.4222 11.5274C10.5697 12.323 10.0908 13.4021 10.0908 14.5272C10.0908 15.6524 10.5697 16.7315 11.4222 17.5271C12.2746 18.3227 13.4307 18.7696 14.6363 18.7696ZM15.2856 12.709V13.9212H16.5843C16.7565 13.9212 16.9217 13.985 17.0435 14.0987C17.1653 14.2123 17.2337 14.3665 17.2337 14.5272C17.2337 14.688 17.1653 14.8421 17.0435 14.9558C16.9217 15.0694 16.7565 15.1333 16.5843 15.1333H15.2856V16.3454C15.2856 16.5061 15.2172 16.6603 15.0954 16.7739C14.9737 16.8876 14.8085 16.9515 14.6363 16.9515C14.4641 16.9515 14.2989 16.8876 14.1771 16.7739C14.0553 16.6603 13.9869 16.5061 13.9869 16.3454V15.1333H12.6882C12.516 15.1333 12.3508 15.0694 12.2291 14.9558C12.1073 14.8421 12.0389 14.688 12.0389 14.5272C12.0389 14.3665 12.1073 14.2123 12.2291 14.0987C12.3508 13.985 12.516 13.9212 12.6882 13.9212H13.9869V12.709C13.9869 12.5483 14.0553 12.3941 14.1771 12.2805C14.2989 12.1668 14.4641 12.103 14.6363 12.103C14.8085 12.103 14.9737 12.1668 15.0954 12.2805C15.2172 12.3941 15.2856 12.5483 15.2856 12.709Z" fill="#008A3B"/>
<path id="Vector_2" d="M14.1117 6.9188C14.5261 6.74619 14.9197 6.53287 15.2857 6.28244V7.86062C15.2857 8.21092 15.0091 8.65335 14.3078 9.08122C15.0807 9.04028 15.8546 9.14329 16.5844 9.38425V4.22425C16.5844 3.00365 15.4481 2.09698 14.1117 1.52971C12.7169 0.938194 10.8351 0.587891 8.79221 0.587891C6.74935 0.587891 4.86753 0.938194 3.47273 1.52971C2.13636 2.09698 1 3.00365 1 4.22425V15.1333C1 16.354 2.13636 17.2606 3.47273 17.8279C4.86753 18.4182 6.74935 18.7697 8.79221 18.7697C9.48831 18.7697 10.1662 18.7285 10.8117 18.6521C10.4065 18.3243 10.0512 17.9463 9.75584 17.5285C9.44156 17.5479 9.11948 17.5576 8.79221 17.5576C6.89091 17.5576 5.2 17.2303 4.01039 16.7249C2.76104 16.194 2.2987 15.5855 2.2987 15.1333V13.5552C2.65065 13.8 3.05195 14.0133 3.47273 14.1915C4.86753 14.7818 6.74935 15.1333 8.79221 15.1333H8.82727C8.77958 14.7305 8.77958 14.324 8.82727 13.9212H8.79221C6.89091 13.9212 5.2 13.594 4.01039 13.0885C2.76104 12.5576 2.2987 11.9491 2.2987 11.497V9.9188C2.65065 10.1636 3.05195 10.377 3.47273 10.5552C4.86753 11.1455 6.74935 11.497 8.79221 11.497C9.13247 11.497 9.46753 11.4873 9.7974 11.4679C10.1846 10.9357 10.669 10.4713 11.2286 10.0958C10.4779 10.217 9.65714 10.2849 8.79221 10.2849C6.89091 10.2849 5.2 9.95759 4.01039 9.45213C2.76104 8.92122 2.2987 8.31274 2.2987 7.86062V6.28244C2.65065 6.52728 3.05195 6.74062 3.47273 6.9188C4.86753 7.51031 6.74935 7.86062 8.79221 7.86062C10.8351 7.86062 12.7169 7.51031 14.1117 6.9188ZM2.2987 4.22425C2.2987 3.77092 2.76104 3.16365 4.01039 2.63274C5.2 2.1285 6.89091 1.80001 8.79221 1.80001C10.6935 1.80001 12.3844 2.12728 13.574 2.63274C14.8234 3.16365 15.2857 3.77213 15.2857 4.22425C15.2857 4.67759 14.8234 5.28486 13.574 5.81577C12.3844 6.32001 10.6935 6.6485 8.79221 6.6485C6.89091 6.6485 5.2 6.32122 4.01039 5.81577C2.76104 5.28486 2.2987 4.67638 2.2987 4.22425Z" fill="#008A3B"/>
</g>
</g>
<defs>
<clipPath id="clip0_119_674">
<rect width="20" height="20" fill="white" transform="translate(0.5 0.337891)"/>
</clipPath>
</defs>
</svg>
