<svg width="22" height="23" viewBox="0 0 22 23" fill="none" xmlns="http://www.w3.org/2000/svg">
<path id="Vector" d="M11.1667 0.833374C9.057 0.833374 6.99471 1.45896 5.24059 2.63103C3.48646 3.8031 2.11929 5.46901 1.31196 7.41808C0.504622 9.36716 0.293386 11.5119 0.704962 13.581C1.11654 15.6501 2.13244 17.5508 3.6242 19.0425C5.11596 20.5343 7.01658 21.5502 9.08571 21.9618C11.1548 22.3733 13.2996 22.1621 15.2486 21.3548C17.1977 20.5474 18.8636 19.1802 20.0357 17.4261C21.2078 15.672 21.8333 13.6097 21.8333 11.5C21.8333 8.67106 20.7095 5.95796 18.7091 3.95757C16.7088 1.95718 13.9956 0.833374 11.1667 0.833374ZM16.5 15.5667C16.6768 15.7435 16.7761 15.9833 16.7761 16.2334C16.7761 16.4834 16.6768 16.7232 16.5 16.9C16.3232 17.0769 16.0834 17.1762 15.8333 17.1762C15.5833 17.1762 15.3435 17.0769 15.1667 16.9L11.1667 12.9L7.16667 16.9134C7.07912 17.0009 6.97519 17.0704 6.8608 17.1178C6.74642 17.1651 6.62382 17.1895 6.50001 17.1895C6.37619 17.1895 6.25359 17.1651 6.13921 17.1178C6.02482 17.0704 5.92089 17.0009 5.83334 16.9134C5.74579 16.8258 5.67634 16.7219 5.62896 16.6075C5.58158 16.4931 5.5572 16.3705 5.5572 16.2467C5.5572 16.1229 5.58158 16.0003 5.62896 15.8859C5.67634 15.7715 5.74579 15.6676 5.83334 15.58L9.83334 11.5534L5.72001 7.40671C5.54319 7.2299 5.44386 6.99009 5.44386 6.74004C5.44386 6.48999 5.54319 6.25019 5.72001 6.07337C5.89682 5.89656 6.13662 5.79723 6.38667 5.79723C6.63672 5.79723 6.87653 5.89656 7.05334 6.07337L11.1667 10.2334L15.28 6.12004C15.3676 6.03249 15.4715 5.96305 15.5859 5.91567C15.7003 5.86828 15.8229 5.8439 15.9467 5.8439C16.0705 5.8439 16.1931 5.86828 16.3075 5.91567C16.4219 5.96305 16.5258 6.03249 16.6133 6.12004C16.7009 6.20759 16.7703 6.31152 16.8177 6.42591C16.8651 6.5403 16.8895 6.6629 16.8895 6.78671C16.8895 6.91052 16.8651 7.03312 16.8177 7.1475C16.7703 7.26189 16.7009 7.36583 16.6133 7.45337L12.5 11.5534L16.5 15.5667Z" fill="#A4ADAF"/>
</svg>
