<svg width="19" height="16" viewBox="0 0 19 16" fill="none" xmlns="http://www.w3.org/2000/svg">
<path id="Vector" d="M15.9173 0.666626H3.08398C2.35464 0.666626 1.65517 0.956357 1.13944 1.47208C0.623716 1.98781 0.333984 2.68728 0.333984 3.41663V12.5833C0.333984 13.3126 0.623716 14.0121 1.13944 14.5278C1.65517 15.0436 2.35464 15.3333 3.08398 15.3333H15.9173C16.6467 15.3333 17.3461 15.0436 17.8619 14.5278C18.3776 14.0121 18.6673 13.3126 18.6673 12.5833V3.41663C18.6673 2.68728 18.3776 1.98781 17.8619 1.47208C17.3461 0.956357 16.6467 0.666626 15.9173 0.666626ZM15.3032 2.49996L9.50065 6.85413L3.69815 2.49996H15.3032ZM15.9173 13.5H3.08398C2.84087 13.5 2.60771 13.4034 2.4358 13.2315C2.2639 13.0596 2.16732 12.8264 2.16732 12.5833V3.64579L8.95065 8.73329C9.10932 8.8523 9.30231 8.91663 9.50065 8.91663C9.69899 8.91663 9.89198 8.8523 10.0507 8.73329L16.834 3.64579V12.5833C16.834 12.8264 16.7374 13.0596 16.5655 13.2315C16.3936 13.4034 16.1604 13.5 15.9173 13.5Z" fill="#231F20"/>
</svg>
