<svg width="23" height="23" viewBox="0 0 23 23" fill="none" xmlns="http://www.w3.org/2000/svg">
<path id="Vector" d="M17.4062 22.6664C12.9242 22.6606 8.62739 20.874 5.45812 17.6985C2.28886 14.5229 0.505809 10.2176 0.5 5.72668C0.5 4.3847 1.03204 3.09769 1.97908 2.14877C2.92612 1.19985 4.21058 0.666752 5.5499 0.666752C5.83351 0.664587 6.11664 0.690378 6.39521 0.74375C6.66451 0.78368 6.92925 0.849997 7.18563 0.941748C7.36594 1.00514 7.52662 1.11459 7.65177 1.25928C7.77692 1.40397 7.8622 1.57889 7.8992 1.76674L9.40319 8.36664C9.44373 8.54578 9.43885 8.73225 9.38899 8.90902C9.33913 9.08579 9.24589 9.24724 9.11776 9.37862C8.97505 9.53262 8.96407 9.54362 7.61377 10.2476C8.6951 12.6245 10.5923 14.5333 12.9601 15.6265C13.6737 14.2626 13.6846 14.2516 13.8383 14.1086C13.9694 13.9802 14.1306 13.8867 14.307 13.8368C14.4834 13.7868 14.6695 13.7819 14.8483 13.8226L21.4351 15.3295C21.6166 15.3717 21.7844 15.4595 21.9226 15.5846C22.0609 15.7097 22.1652 15.8679 22.2255 16.0445C22.3182 16.3056 22.388 16.5743 22.4341 16.8475C22.4783 17.124 22.5003 17.4035 22.5 17.6835C22.4798 19.0197 21.9328 20.2937 20.9784 21.2273C20.0241 22.1608 18.7399 22.6782 17.4062 22.6664Z" fill="#231F20"/>
</svg>
