<svg width="16" height="16" viewBox="0 0 16 16" fill="none" xmlns="http://www.w3.org/2000/svg">
<g id="Frame">
<path id="Vector" fill-rule="evenodd" clip-rule="evenodd" d="M13.0301 7.05696C13.0404 7.84963 12.8931 8.63645 12.5969 9.37174C12.3006 10.107 11.8613 10.7762 11.3044 11.3403C10.7474 11.9045 10.084 12.3524 9.35263 12.6582C8.62122 12.9639 7.83638 13.1213 7.04364 13.1213C6.25091 13.1213 5.46606 12.9639 4.73466 12.6582C4.00325 12.3524 3.33984 11.9045 2.78292 11.3403C2.22601 10.7762 1.78668 10.107 1.49043 9.37174C1.19417 8.63645 1.0469 7.84963 1.05714 7.05696C1.07749 5.48265 1.71716 3.97971 2.83764 2.87362C3.95811 1.76754 5.46919 1.14734 7.04364 1.14734C8.61809 1.14734 10.1292 1.76754 11.2496 2.87362C12.3701 3.97971 13.0098 5.48265 13.0301 7.05696ZM2.44414 7.05696C2.44414 8.27696 2.92878 9.44699 3.79145 10.3097C4.65412 11.1723 5.82414 11.657 7.04414 11.657C8.26414 11.657 9.43417 11.1723 10.2968 10.3097C11.1595 9.44699 11.6441 8.27696 11.6441 7.05696C11.6441 5.83697 11.1595 4.66694 10.2968 3.80427C9.43417 2.94161 8.26414 2.45696 7.04414 2.45696C5.82414 2.45696 4.65412 2.94161 3.79145 3.80427C2.92878 4.66694 2.44414 5.83697 2.44414 7.05696Z" fill="white"/>
<path id="Vector_2" fill-rule="evenodd" clip-rule="evenodd" d="M10.2682 10.3461C10.3378 10.2764 10.4205 10.2211 10.5115 10.1834C10.6026 10.1456 10.7001 10.1262 10.7987 10.1262C10.8972 10.1262 10.9948 10.1456 11.0858 10.1834C11.1768 10.2211 11.2595 10.2764 11.3292 10.3461L14.6342 13.6511C14.7666 13.7932 14.8388 13.9813 14.8353 14.1756C14.8319 14.3699 14.7532 14.5553 14.6158 14.6927C14.4784 14.8301 14.293 14.9088 14.0987 14.9122C13.9044 14.9157 13.7163 14.8435 13.5742 14.7111L10.2682 11.4061C10.1277 11.2654 10.0488 11.0748 10.0488 10.8761C10.0488 10.6773 10.1277 10.4867 10.2682 10.3461Z" fill="white"/>
</g>
</svg>
