<svg width="24" height="24" viewBox="0 0 24 24" fill="none" xmlns="http://www.w3.org/2000/svg">
<g id="circum:settings">
<path id="Vector" d="M12.6004 20.936H11.3004C11.1062 20.9358 10.9175 20.8716 10.7635 20.7534C10.6095 20.6352 10.4987 20.4695 10.4484 20.282L9.67436 17.449L7.17436 18.884C7.00675 18.9795 6.81252 19.0177 6.6212 18.9928C6.42988 18.9679 6.25192 18.8812 6.11436 18.746L5.18936 17.827C5.05161 17.6897 4.96294 17.5109 4.93709 17.3182C4.91124 17.1255 4.94964 16.9296 5.04636 16.761L6.51536 14.216L6.50936 14.2L3.72236 13.453C3.53492 13.4028 3.36925 13.2922 3.25102 13.1384C3.13279 12.9845 3.06858 12.796 3.06836 12.602V11.3C3.06869 11.1064 3.1327 10.9183 3.25053 10.7646C3.36836 10.611 3.53346 10.5005 3.72036 10.45L6.55936 9.67297L5.12036 7.17097C5.02454 7.00288 4.98645 6.80801 5.01191 6.61621C5.03738 6.42441 5.125 6.24624 5.26136 6.10897L6.17936 5.19097C6.31643 5.05468 6.49436 4.96701 6.68596 4.94137C6.87755 4.91573 7.07227 4.95352 7.24036 5.04897L9.79236 6.51397H9.80436L10.5494 3.72397C10.5992 3.53626 10.7096 3.37027 10.8635 3.25182C11.0174 3.13337 11.2062 3.06908 11.4004 3.06897H12.7004C12.8947 3.0692 13.0834 3.13351 13.2375 3.25193C13.3915 3.37035 13.5022 3.53627 13.5524 3.72397L14.3144 6.56197L16.8234 5.12097C16.9908 5.0255 17.1849 4.98732 17.376 5.01223C17.5672 5.03714 17.745 5.12377 17.8824 5.25897L18.8084 6.17797C18.9463 6.31532 19.035 6.49447 19.0605 6.68747C19.086 6.88047 19.0469 7.07649 18.9494 7.24497L17.4834 9.77697L17.4914 9.79897L20.2774 10.545C20.4645 10.5955 20.6299 10.7062 20.7479 10.86C20.8659 11.0137 20.93 11.2021 20.9304 11.396V12.696C20.9302 12.8901 20.866 13.0788 20.7478 13.2328C20.6296 13.3869 20.4639 13.4976 20.2764 13.548L17.4394 14.322L18.8784 16.827C18.9751 16.995 19.0137 17.1902 18.9882 17.3824C18.9627 17.5746 18.8745 17.753 18.7374 17.89L17.8204 18.807C17.6828 18.9431 17.5044 19.0306 17.3125 19.056C17.1207 19.0815 16.9257 19.0435 16.7574 18.948L14.2184 17.486L14.2004 17.5L13.4554 20.285C13.404 20.4723 13.2925 20.6375 13.138 20.7551C12.9835 20.8727 12.7946 20.9363 12.6004 20.936ZM11.3904 19.936H12.5094L13.2474 17.18C13.2835 17.0471 13.3499 16.9245 13.4416 16.8217C13.5332 16.719 13.6475 16.639 13.7754 16.588L13.9094 16.536C14.0321 16.4874 14.1643 16.4673 14.2959 16.4772C14.4275 16.487 14.5552 16.5266 14.6694 16.593L17.1794 18.038L17.9684 17.249L16.5454 14.771C16.4779 14.6534 16.4385 14.5219 16.4301 14.3866C16.4218 14.2513 16.4448 14.1159 16.4974 13.991L16.5494 13.866C16.601 13.7418 16.6805 13.6312 16.7818 13.5428C16.8831 13.4543 17.0034 13.3904 17.1334 13.356L19.9334 12.607V11.487L17.1784 10.75C17.0453 10.714 16.9225 10.6474 16.8197 10.5556C16.7169 10.4637 16.637 10.3492 16.5864 10.221L16.5344 10.089C16.486 9.96567 16.4659 9.83306 16.4758 9.70097C16.4857 9.56888 16.5252 9.44071 16.5914 9.32597L18.0404 6.81797L17.2404 6.02797L14.7604 7.45297C14.6442 7.52003 14.5142 7.55958 14.3804 7.5686C14.2466 7.57761 14.1125 7.55584 13.9884 7.50497L13.8734 7.45797C13.7478 7.40611 13.6358 7.32614 13.546 7.2242C13.4562 7.12226 13.391 7.00107 13.3554 6.86997L12.6074 4.06397H11.4924L10.7544 6.82597C10.7186 6.9616 10.6511 7.08677 10.5574 7.19111C10.4636 7.29545 10.3464 7.37596 10.2154 7.42597L10.0954 7.47097C9.97378 7.51791 9.84323 7.53706 9.71329 7.52702C9.58335 7.51699 9.45729 7.47802 9.34436 7.41297L6.82236 5.96197L6.03336 6.75097L7.45536 9.22697C7.52293 9.34545 7.56224 9.47793 7.57022 9.61409C7.5782 9.75025 7.55463 9.88641 7.50136 10.012L7.45036 10.132C7.39795 10.2537 7.31862 10.3619 7.21832 10.4485C7.11803 10.5351 6.9994 10.5978 6.87136 10.632L4.07136 11.39V12.511L6.82836 13.249C6.96069 13.285 7.0829 13.3511 7.18542 13.4422C7.28795 13.5332 7.36802 13.6468 7.41936 13.774L7.46736 13.895C7.51776 14.019 7.53901 14.1529 7.52948 14.2864C7.51994 14.4199 7.47987 14.5494 7.41236 14.665L5.95836 17.181L6.75836 17.972L9.22836 16.553C9.34695 16.4846 9.47988 16.445 9.61653 16.4372C9.75317 16.4294 9.88975 16.4536 10.0154 16.508L10.1214 16.552C10.2493 16.6022 10.3637 16.6819 10.4551 16.7845C10.5465 16.8872 10.6123 17.01 10.6474 17.143L11.3904 19.936Z" fill="#008A3B"/>
<path id="Vector_2" d="M12 15C11.4067 15 10.8266 14.8241 10.3333 14.4944C9.83994 14.1648 9.45543 13.6962 9.22836 13.1481C9.0013 12.5999 8.94189 11.9967 9.05765 11.4147C9.1734 10.8328 9.45912 10.2982 9.87868 9.87868C10.2982 9.45912 10.8328 9.1734 11.4147 9.05765C11.9967 8.94189 12.5999 9.0013 13.1481 9.22836C13.6962 9.45543 14.1648 9.83994 14.4944 10.3333C14.8241 10.8266 15 11.4067 15 12C15 12.7957 14.6839 13.5587 14.1213 14.1213C13.5587 14.6839 12.7957 15 12 15ZM12 10C11.6044 10 11.2178 10.1173 10.8889 10.3371C10.56 10.5568 10.3036 10.8692 10.1522 11.2346C10.0009 11.6001 9.96126 12.0022 10.0384 12.3902C10.1156 12.7781 10.3061 13.1345 10.5858 13.4142C10.8655 13.6939 11.2219 13.8844 11.6098 13.9616C11.9978 14.0387 12.3999 13.9991 12.7654 13.8478C13.1308 13.6964 13.4432 13.44 13.6629 13.1111C13.8827 12.7822 14 12.3956 14 12C14 11.4696 13.7893 10.9609 13.4142 10.5858C13.0391 10.2107 12.5304 10 12 10Z" fill="#008A3B"/>
</g>
</svg>
