<svg width="21" height="20" viewBox="0 0 21 20" fill="none" xmlns="http://www.w3.org/2000/svg">
<g id="mdi:account-pending" clip-path="url(#clip0_119_950)">
<path id="Vector" d="M8.98337 11.75C9.30064 11.0529 9.75215 10.425 10.3121 9.90236C10.8721 9.37971 11.5295 8.97249 12.2469 8.70396C12.9642 8.43544 13.7275 8.31086 14.493 8.33736C15.2585 8.36385 16.0113 8.54089 16.7084 8.85837C17.4056 9.17564 18.0334 9.62715 18.5561 10.1871C19.0787 10.7471 19.4859 11.4045 19.7545 12.1219C20.023 12.8392 20.1476 13.6025 20.1211 14.368C20.0946 15.1335 19.9175 15.8863 19.6 16.5834C19.138 17.6034 18.3913 18.4684 17.4497 19.0745C16.5081 19.6806 15.4115 20.0019 14.2917 20C12.0417 20 9.98337 18.7 9.01671 16.6667H0.958374V15C1.00837 14.05 1.65837 13.275 2.90837 12.65C4.15837 12.025 5.72504 11.7 7.62504 11.6667C8.10004 11.6667 8.55004 11.7084 8.98337 11.75ZM7.62504 3.33337C8.55837 3.35837 9.34171 3.68337 9.96671 4.30837C10.5917 4.93337 10.9 5.71671 10.9 6.66671C10.9 7.61671 10.5917 8.40004 9.96671 9.02504C9.34171 9.65004 8.55837 9.95837 7.62504 9.95837C6.69171 9.95837 5.90837 9.65004 5.28337 9.02504C4.65837 8.40004 4.35004 7.61671 4.35004 6.66671C4.35004 5.71671 4.65837 4.93337 5.28337 4.30837C5.90837 3.68337 6.69171 3.35837 7.62504 3.33337ZM14.2917 18.3334C15.3968 18.3334 16.4566 17.8944 17.238 17.113C18.0194 16.3316 18.4584 15.2718 18.4584 14.1667C18.4584 13.0616 18.0194 12.0018 17.238 11.2204C16.4566 10.439 15.3968 10 14.2917 10C13.1866 10 12.1268 10.439 11.3454 11.2204C10.564 12.0018 10.125 13.0616 10.125 14.1667C10.125 15.2718 10.564 16.3316 11.3454 17.113C12.1268 17.8944 13.1866 18.3334 14.2917 18.3334ZM13.4584 11.6667H14.7084V14.0167L16.7417 15.1917L16.1167 16.275L13.4584 14.7417V11.6667Z" fill="#008A3B"/>
</g>
<defs>
<clipPath id="clip0_119_950">
<rect width="20" height="20" fill="white" transform="translate(0.125)"/>
</clipPath>
</defs>
</svg>
