<svg width="24" height="25" viewBox="0 0 24 25" fill="none" xmlns="http://www.w3.org/2000/svg">
<g id="material-symbols:admin-panel-settings-outline">
<path id="Vector" d="M17 17.3379C17.4167 17.3379 17.771 17.1919 18.063 16.8999C18.355 16.6079 18.5007 16.2539 18.5 15.8379C18.5 15.4212 18.354 15.0669 18.062 14.7749C17.77 14.4829 17.416 14.3372 17 14.3379C16.5833 14.3379 16.229 14.4839 15.937 14.7759C15.645 15.0679 15.4993 15.4219 15.5 15.8379C15.5 16.2546 15.646 16.6089 15.938 16.9009C16.23 17.1929 16.584 17.3386 17 17.3379ZM17 20.3379C17.5167 20.3379 17.9917 20.2169 18.425 19.9749C18.8583 19.7329 19.2083 19.4122 19.475 19.0129C19.1083 18.7962 18.7167 18.6296 18.3 18.5129C17.8833 18.3962 17.45 18.3379 17 18.3379C16.55 18.3379 16.1167 18.3962 15.7 18.5129C15.2833 18.6296 14.8917 18.7962 14.525 19.0129C14.7917 19.4129 15.1417 19.7339 15.575 19.9759C16.0083 20.2179 16.4833 20.3386 17 20.3379ZM12 22.3379C9.68333 21.7546 7.77067 20.4252 6.262 18.3499C4.75333 16.2746 3.99933 13.9706 4 11.4379V5.33789L12 2.33789L20 5.33789V11.0129C19.6833 10.8796 19.3583 10.7586 19.025 10.6499C18.6917 10.5412 18.35 10.4622 18 10.4129V6.73789L12 4.48789L6 6.73789V11.4379C6 12.2212 6.10433 13.0046 6.313 13.7879C6.52167 14.5712 6.81333 15.3172 7.188 16.0259C7.56267 16.7339 8.01667 17.3879 8.55 17.9879C9.08333 18.5879 9.675 19.0879 10.325 19.4879C10.5083 20.0212 10.75 20.5296 11.05 21.0129C11.35 21.4962 11.6917 21.9296 12.075 22.3129C12.0583 22.3129 12.046 22.3172 12.038 22.3259C12.03 22.3346 12.0173 22.3386 12 22.3379ZM17 22.3379C15.6167 22.3379 14.4373 21.8502 13.462 20.8749C12.4867 19.8996 11.9993 18.7206 12 17.3379C12 15.9546 12.4877 14.7752 13.463 13.7999C14.4383 12.8246 15.6173 12.3372 17 12.3379C18.3833 12.3379 19.5627 12.8256 20.538 13.8009C21.5133 14.7762 22.0007 15.9552 22 17.3379C22 18.7212 21.5123 19.9006 20.537 20.8759C19.5617 21.8512 18.3827 22.3386 17 22.3379Z" fill="#8494A5"/>
</g>
</svg>
