<svg width="26" height="25" viewBox="0 0 26 25" fill="none" xmlns="http://www.w3.org/2000/svg">
<g id="ph:eye">
<path id="Vector" d="M25.1174 12.1836C25.0819 12.1064 24.2216 10.2715 22.3092 8.43262C19.761 5.98242 16.5425 4.6875 13 4.6875C9.45749 4.6875 6.23898 5.98242 3.69077 8.43262C1.77835 10.2715 0.914053 12.1094 0.882568 12.1836C0.836371 12.2835 0.8125 12.3916 0.8125 12.501C0.8125 12.6103 0.836371 12.7184 0.882568 12.8184C0.918115 12.8955 1.77835 14.7295 3.69077 16.5684C6.23898 19.0176 9.45749 20.3125 13 20.3125C16.5425 20.3125 19.761 19.0176 22.3092 16.5684C24.2216 14.7295 25.0819 12.8955 25.1174 12.8184C25.1636 12.7184 25.1875 12.6103 25.1875 12.501C25.1875 12.3916 25.1636 12.2835 25.1174 12.1836ZM13 18.75C9.8739 18.75 7.14288 17.6572 4.8821 15.5029C3.95447 14.6159 3.16527 13.6044 2.53905 12.5C3.16511 11.3954 3.95432 10.384 4.8821 9.49707C7.14288 7.34277 9.8739 6.25 13 6.25C16.1261 6.25 18.8571 7.34277 21.1179 9.49707C22.0473 10.3837 22.8382 11.3952 23.466 12.5C22.7337 13.8145 19.5437 18.75 13 18.75ZM13 7.8125C12.0358 7.8125 11.0933 8.08742 10.2916 8.60249C9.4899 9.11756 8.86506 9.84964 8.49608 10.7062C8.1271 11.5627 8.03056 12.5052 8.21866 13.4145C8.40677 14.3238 8.87106 15.159 9.55285 15.8146C10.2346 16.4701 11.1033 16.9166 12.0489 17.0974C12.9946 17.2783 13.9748 17.1855 14.8656 16.8307C15.7564 16.4759 16.5177 15.8751 17.0534 15.1042C17.5891 14.3334 17.875 13.4271 17.875 12.5C17.8736 11.2572 17.3596 10.0657 16.4457 9.18686C15.5317 8.30807 14.2925 7.81379 13 7.8125ZM13 15.625C12.3572 15.625 11.7288 15.4417 11.1944 15.0983C10.6599 14.755 10.2434 14.2669 9.99738 13.6959C9.7514 13.1249 9.68704 12.4965 9.81244 11.8903C9.93784 11.2842 10.2474 10.7273 10.7019 10.2903C11.1564 9.85325 11.7355 9.55562 12.3659 9.43505C12.9964 9.31447 13.6499 9.37635 14.2437 9.61288C14.8376 9.8494 15.3452 10.2499 15.7023 10.7638C16.0594 11.2777 16.25 11.8819 16.25 12.5C16.25 13.3288 15.9076 14.1237 15.2981 14.7097C14.6886 15.2958 13.8619 15.625 13 15.625Z" fill="#0069EC"/>
</g>
</svg>
