<svg width="20" height="17" viewBox="0 0 20 17" fill="none" xmlns="http://www.w3.org/2000/svg">
<g id="Frame">
<path id="Vector" d="M17.2311 10.85L15.8999 10.0812C16.0343 9.35621 16.0343 8.61246 15.8999 7.88746L17.2311 7.11871C17.3843 7.03121 17.453 6.84996 17.403 6.68121C17.0561 5.56871 16.4655 4.56246 15.6936 3.72496C15.5749 3.59683 15.3811 3.56558 15.2311 3.65308L13.8999 4.42183C13.3405 3.94058 12.6968 3.56871 11.9999 3.32496V1.79058C11.9999 1.61558 11.878 1.46246 11.7061 1.42496C10.5593 1.16871 9.38427 1.18121 8.29365 1.42496C8.12177 1.46246 7.9999 1.61558 7.9999 1.79058V3.32808C7.30615 3.57496 6.6624 3.94683 6.0999 4.42496L4.77177 3.65621C4.61865 3.56871 4.42802 3.59683 4.30927 3.72808C3.5374 4.56246 2.94677 5.56871 2.5999 6.68433C2.54677 6.85308 2.61865 7.03433 2.77177 7.12183L4.10302 7.89058C3.96865 8.61558 3.96865 9.35933 4.10302 10.0843L2.77177 10.8531C2.61865 10.9406 2.5499 11.1218 2.5999 11.2906C2.94677 12.4031 3.5374 13.4093 4.30927 14.2468C4.42802 14.375 4.62177 14.4062 4.77177 14.3187L6.10302 13.55C6.6624 14.0312 7.30615 14.4031 8.00302 14.6468V16.1843C8.00302 16.3593 8.1249 16.5125 8.29677 16.55C9.44365 16.8062 10.6186 16.7937 11.7093 16.55C11.8811 16.5125 12.003 16.3593 12.003 16.1843V14.6468C12.6968 14.4 13.3405 14.0281 13.903 13.55L15.2343 14.3187C15.3874 14.4062 15.578 14.3781 15.6968 14.2468C16.4686 13.4125 17.0593 12.4062 17.4061 11.2906C17.453 11.1187 17.3843 10.9375 17.2311 10.85ZM9.9999 11.4843C8.62177 11.4843 7.4999 10.3625 7.4999 8.98433C7.4999 7.60621 8.62177 6.48433 9.9999 6.48433C11.378 6.48433 12.4999 7.60621 12.4999 8.98433C12.4999 10.3625 11.378 11.4843 9.9999 11.4843Z" fill="#627293"/>
</g>
</svg>
