<svg width="24" height="24" viewBox="0 0 24 24" fill="none" xmlns="http://www.w3.org/2000/svg">
<g id="circum:settings">
<path id="Vector" d="M12.6 20.936H11.3C11.1058 20.9358 10.9171 20.8716 10.7631 20.7534C10.6091 20.6352 10.4983 20.4695 10.448 20.282L9.67399 17.449L7.17399 18.884C7.00638 18.9795 6.81216 19.0177 6.62084 18.9928C6.42952 18.9679 6.25156 18.8812 6.11399 18.746L5.18899 17.827C5.05124 17.6897 4.96257 17.5109 4.93672 17.3182C4.91087 17.1255 4.94928 16.9296 5.04599 16.761L6.51499 14.216L6.50899 14.2L3.72199 13.453C3.53456 13.4028 3.36889 13.2922 3.25065 13.1384C3.13242 12.9845 3.06822 12.796 3.06799 12.602V11.3C3.06832 11.1064 3.13233 10.9183 3.25016 10.7646C3.36799 10.611 3.53309 10.5005 3.71999 10.45L6.55899 9.67297L5.11999 7.17097C5.02417 7.00288 4.98608 6.80801 5.01154 6.61621C5.03701 6.42441 5.12463 6.24624 5.26099 6.10897L6.17899 5.19097C6.31607 5.05468 6.494 4.96701 6.68559 4.94137C6.87718 4.91573 7.0719 4.95352 7.23999 5.04897L9.79199 6.51397H9.80399L10.549 3.72397C10.5988 3.53626 10.7093 3.37027 10.8632 3.25182C11.0171 3.13337 11.2058 3.06908 11.4 3.06897H12.7C12.8943 3.0692 13.0831 3.13351 13.2371 3.25193C13.3911 3.37035 13.5018 3.53627 13.552 3.72397L14.314 6.56197L16.823 5.12097C16.9905 5.0255 17.1845 4.98732 17.3757 5.01223C17.5668 5.03714 17.7446 5.12377 17.882 5.25897L18.808 6.17797C18.946 6.31532 19.0346 6.49447 19.0601 6.68747C19.0856 6.88047 19.0465 7.07649 18.949 7.24497L17.483 9.77697L17.491 9.79897L20.277 10.545C20.4642 10.5955 20.6295 10.7062 20.7475 10.86C20.8655 11.0137 20.9297 11.2021 20.93 11.396V12.696C20.9298 12.8901 20.8657 13.0788 20.7474 13.2328C20.6292 13.3869 20.4635 13.4976 20.276 13.548L17.439 14.322L18.878 16.827C18.9747 16.995 19.0133 17.1902 18.9878 17.3824C18.9624 17.5746 18.8742 17.753 18.737 17.89L17.82 18.807C17.6824 18.9431 17.5041 19.0306 17.3122 19.056C17.1203 19.0815 16.9253 19.0435 16.757 18.948L14.218 17.486L14.2 17.5L13.455 20.285C13.4036 20.4723 13.2921 20.6375 13.1376 20.7551C12.9831 20.8727 12.7942 20.9363 12.6 20.936ZM11.39 19.936H12.509L13.247 17.18C13.2831 17.0471 13.3496 16.9245 13.4412 16.8217C13.5329 16.719 13.6471 16.639 13.775 16.588L13.909 16.536C14.0317 16.4874 14.1639 16.4673 14.2955 16.4772C14.4272 16.487 14.5549 16.5266 14.669 16.593L17.179 18.038L17.968 17.249L16.545 14.771C16.4775 14.6534 16.4381 14.5219 16.4298 14.3866C16.4215 14.2513 16.4445 14.1159 16.497 13.991L16.549 13.866C16.6006 13.7418 16.6801 13.6312 16.7814 13.5428C16.8827 13.4543 17.003 13.3904 17.133 13.356L19.933 12.607V11.487L17.178 10.75C17.0449 10.714 16.9221 10.6474 16.8193 10.5556C16.7166 10.4637 16.6367 10.3492 16.586 10.221L16.534 10.089C16.4856 9.96567 16.4656 9.83306 16.4754 9.70097C16.4853 9.56888 16.5248 9.44071 16.591 9.32597L18.04 6.81797L17.24 6.02797L14.76 7.45297C14.6438 7.52003 14.5139 7.55958 14.38 7.5686C14.2462 7.57761 14.1121 7.55584 13.988 7.50497L13.873 7.45797C13.7474 7.40611 13.6354 7.32614 13.5456 7.2242C13.4558 7.12226 13.3906 7.00107 13.355 6.86997L12.607 4.06397H11.492L10.754 6.82597C10.7183 6.9616 10.6507 7.08677 10.557 7.19111C10.4633 7.29545 10.346 7.37596 10.215 7.42597L10.095 7.47097C9.97341 7.51791 9.84287 7.53706 9.71292 7.52702C9.58298 7.51699 9.45693 7.47802 9.34399 7.41297L6.82199 5.96197L6.03299 6.75097L7.45499 9.22697C7.52257 9.34545 7.56187 9.47793 7.56985 9.61409C7.57783 9.75025 7.55427 9.88641 7.50099 10.012L7.44999 10.132C7.39759 10.2537 7.31825 10.3619 7.21796 10.4485C7.11767 10.5351 6.99903 10.5978 6.87099 10.632L4.07099 11.39V12.511L6.82799 13.249C6.96032 13.285 7.08253 13.3511 7.18506 13.4422C7.28758 13.5332 7.36765 13.6468 7.41899 13.774L7.46699 13.895C7.5174 14.019 7.53865 14.1529 7.52911 14.2864C7.51958 14.4199 7.47951 14.5494 7.41199 14.665L5.95799 17.181L6.75799 17.972L9.22799 16.553C9.34659 16.4846 9.47951 16.445 9.61616 16.4372C9.7528 16.4294 9.88938 16.4536 10.015 16.508L10.121 16.552C10.249 16.6022 10.3633 16.6819 10.4547 16.7845C10.5461 16.8872 10.612 17.01 10.647 17.143L11.39 19.936Z" fill="#8494A5"/>
<path id="Vector_2" d="M12 15C11.4067 15 10.8266 14.8241 10.3333 14.4944C9.83994 14.1648 9.45543 13.6962 9.22836 13.1481C9.0013 12.5999 8.94189 11.9967 9.05765 11.4147C9.1734 10.8328 9.45912 10.2982 9.87868 9.87868C10.2982 9.45912 10.8328 9.1734 11.4147 9.05765C11.9967 8.94189 12.5999 9.0013 13.1481 9.22836C13.6962 9.45543 14.1648 9.83994 14.4944 10.3333C14.8241 10.8266 15 11.4067 15 12C15 12.7957 14.6839 13.5587 14.1213 14.1213C13.5587 14.6839 12.7957 15 12 15ZM12 10C11.6044 10 11.2178 10.1173 10.8889 10.3371C10.56 10.5568 10.3036 10.8692 10.1522 11.2346C10.0009 11.6001 9.96126 12.0022 10.0384 12.3902C10.1156 12.7781 10.3061 13.1345 10.5858 13.4142C10.8655 13.6939 11.2219 13.8844 11.6098 13.9616C11.9978 14.0387 12.3999 13.9991 12.7654 13.8478C13.1308 13.6964 13.4432 13.44 13.6629 13.1111C13.8827 12.7822 14 12.3956 14 12C14 11.4696 13.7893 10.9609 13.4142 10.5858C13.0391 10.2107 12.5304 10 12 10Z" fill="#8494A5"/>
</g>
</svg>
