<svg width="25" height="25" viewBox="0 0 25 25" fill="none" xmlns="http://www.w3.org/2000/svg">
<g id="solar:settings-line-duotone">
<g id="Group">
<path id="Vector" d="M12.5 15.625C14.2259 15.625 15.625 14.2259 15.625 12.5C15.625 10.7741 14.2259 9.375 12.5 9.375C10.7741 9.375 9.375 10.7741 9.375 12.5C9.375 14.2259 10.7741 15.625 12.5 15.625Z" stroke="#920000" stroke-width="1.5"/>
<path id="Vector_2" opacity="0.5" d="M14.3383 2.24171C13.956 2.08337 13.4706 2.08337 12.4997 2.08337C11.5289 2.08337 11.0435 2.08337 10.6612 2.24171C10.4083 2.34641 10.1784 2.49993 9.98487 2.6935C9.7913 2.88707 9.63777 3.1169 9.53307 3.36983C9.43724 3.60212 9.3987 3.874 9.38411 4.26879C9.37762 4.5542 9.2987 4.83327 9.15475 5.0798C9.0108 5.32633 8.80656 5.53223 8.5612 5.67817C8.31213 5.81779 8.03166 5.89181 7.74613 5.89327C7.4606 5.89473 7.17938 5.82358 6.9289 5.6865C6.5789 5.50108 6.32578 5.399 6.07474 5.36567C5.52715 5.29366 4.97338 5.44203 4.53515 5.77817C4.20807 6.03129 3.96432 6.45108 3.4789 7.29171C2.99349 8.13233 2.74974 8.55212 2.69661 8.96358C2.66082 9.23489 2.67882 9.51059 2.7496 9.77493C2.82038 10.0393 2.94254 10.2871 3.10911 10.5042C3.26328 10.7042 3.4789 10.8719 3.81328 11.0823C4.30599 11.3917 4.62265 11.9188 4.62265 12.5C4.62265 13.0813 4.30599 13.6084 3.81328 13.9167C3.4789 14.1282 3.26224 14.2959 3.10911 14.4959C2.94254 14.713 2.82038 14.9608 2.7496 15.2252C2.67882 15.4895 2.66082 15.7652 2.69661 16.0365C2.75078 16.4469 2.99349 16.8678 3.47786 17.7084C3.96432 18.549 4.20703 18.9688 4.53515 19.2219C4.75227 19.3885 5.00009 19.5107 5.26443 19.5814C5.52877 19.6522 5.80447 19.6702 6.07578 19.6344C6.32578 19.6011 6.5789 19.499 6.9289 19.3136C7.17938 19.1765 7.4606 19.1054 7.74613 19.1068C8.03166 19.1083 8.31213 19.1823 8.5612 19.3219C9.06432 19.6136 9.36328 20.15 9.38411 20.7313C9.3987 21.1271 9.4362 21.398 9.53307 21.6302C9.63777 21.8832 9.7913 22.113 9.98487 22.3066C10.1784 22.5002 10.4083 22.6537 10.6612 22.7584C11.0435 22.9167 11.5289 22.9167 12.4997 22.9167C13.4706 22.9167 13.956 22.9167 14.3383 22.7584C14.5912 22.6537 14.821 22.5002 15.0146 22.3066C15.2082 22.113 15.3617 21.8832 15.4664 21.6302C15.5622 21.398 15.6008 21.1271 15.6154 20.7313C15.6362 20.15 15.9352 19.6125 16.4383 19.3219C16.6873 19.1823 16.9678 19.1083 17.2533 19.1068C17.5389 19.1054 17.8201 19.1765 18.0706 19.3136C18.4206 19.499 18.6737 19.6011 18.9237 19.6344C19.195 19.6702 19.4707 19.6522 19.735 19.5814C19.9994 19.5107 20.2472 19.3885 20.4643 19.2219C20.7924 18.9698 21.0352 18.549 21.5206 17.7084C22.006 16.8678 22.2497 16.448 22.3029 16.0365C22.3387 15.7652 22.3207 15.4895 22.2499 15.2252C22.1791 14.9608 22.0569 14.713 21.8904 14.4959C21.7362 14.2959 21.5206 14.1282 21.1862 13.9177C20.9422 13.7694 20.7399 13.5615 20.5983 13.3135C20.4567 13.0655 20.3805 12.7856 20.3768 12.5C20.3768 11.9188 20.6935 11.3917 21.1862 11.0834C21.5206 10.8719 21.7372 10.7042 21.8904 10.5042C22.0569 10.2871 22.1791 10.0393 22.2499 9.77493C22.3207 9.51059 22.3387 9.23489 22.3029 8.96358C22.2487 8.55317 22.006 8.13233 21.5216 7.29171C21.0352 6.45108 20.7924 6.03129 20.4643 5.77817C20.2472 5.61159 19.9994 5.48943 19.735 5.41865C19.4707 5.34787 19.195 5.32987 18.9237 5.36567C18.6737 5.399 18.4206 5.50108 18.0695 5.6865C17.8192 5.82339 17.5382 5.89444 17.2528 5.89298C16.9675 5.89152 16.6872 5.81761 16.4383 5.67817C16.1929 5.53223 15.9887 5.32633 15.8447 5.0798C15.7008 4.83327 15.6219 4.5542 15.6154 4.26879C15.6008 3.87296 15.5633 3.60212 15.4664 3.36983C15.3617 3.1169 15.2082 2.88707 15.0146 2.6935C14.821 2.49993 14.5912 2.34641 14.3383 2.24171Z" stroke="#920000" stroke-width="1.5"/>
</g>
</g>
</svg>
