<svg width="21" height="20" viewBox="0 0 21 20" fill="none" xmlns="http://www.w3.org/2000/svg">
<g id="mdi:account-pending" clip-path="url(#clip0_119_1478)">
<path id="Vector" d="M8.98325 11.75C9.30052 11.0529 9.75203 10.425 10.312 9.90236C10.8719 9.37971 11.5294 8.97249 12.2467 8.70396C12.9641 8.43544 13.7273 8.31086 14.4929 8.33736C15.2584 8.36385 16.0112 8.54089 16.7083 8.85837C17.4054 9.17564 18.0333 9.62715 18.5559 10.1871C19.0786 10.7471 19.4858 11.4045 19.7543 12.1219C20.0229 12.8392 20.1474 13.6025 20.1209 14.368C20.0944 15.1335 19.9174 15.8863 19.5999 16.5834C19.1379 17.6034 18.3912 18.4684 17.4496 19.0745C16.508 19.6806 15.4114 20.0019 14.2916 20C12.0416 20 9.98325 18.7 9.01659 16.6667H0.958252V15C1.00825 14.05 1.65825 13.275 2.90825 12.65C4.15825 12.025 5.72492 11.7 7.62492 11.6667C8.09992 11.6667 8.54992 11.7084 8.98325 11.75ZM7.62492 3.33337C8.55825 3.35837 9.34159 3.68337 9.96659 4.30837C10.5916 4.93337 10.8999 5.71671 10.8999 6.66671C10.8999 7.61671 10.5916 8.40004 9.96659 9.02504C9.34159 9.65004 8.55825 9.95837 7.62492 9.95837C6.69159 9.95837 5.90825 9.65004 5.28325 9.02504C4.65825 8.40004 4.34992 7.61671 4.34992 6.66671C4.34992 5.71671 4.65825 4.93337 5.28325 4.30837C5.90825 3.68337 6.69159 3.35837 7.62492 3.33337ZM14.2916 18.3334C15.3967 18.3334 16.4565 17.8944 17.2379 17.113C18.0193 16.3316 18.4583 15.2718 18.4583 14.1667C18.4583 13.0616 18.0193 12.0018 17.2379 11.2204C16.4565 10.439 15.3967 10 14.2916 10C13.1865 10 12.1267 10.439 11.3453 11.2204C10.5639 12.0018 10.1249 13.0616 10.1249 14.1667C10.1249 15.2718 10.5639 16.3316 11.3453 17.113C12.1267 17.8944 13.1865 18.3334 14.2916 18.3334ZM13.4583 11.6667H14.7083V14.0167L16.7416 15.1917L16.1166 16.275L13.4583 14.7417V11.6667Z" fill="#8494A5"/>
</g>
<defs>
<clipPath id="clip0_119_1478">
<rect width="20" height="20" fill="white" transform="translate(0.125)"/>
</clipPath>
</defs>
</svg>
